<svg version="1.1" xmlns="http://www.w3.org/2000/svg" xmlns:xlink="http://www.w3.org/1999/xlink" width="71.86547" height="116.44022" viewBox="0,0,71.86547,116.44022"><g transform="translate(-199.13884,-147.72781)"><g data-paper-data="{&quot;isPaintingLayer&quot;:true}" fill-rule="nonzero" stroke-linejoin="miter" stroke-miterlimit="10" stroke-dasharray="" stroke-dashoffset="0" style="mix-blend-mode: normal"><path d="M220.65409,171.83898c-2.599,1.24336 -7.17749,-2.37174 -8.42085,-4.97074c-1.24336,-2.599 -0.14441,-5.71386 2.45459,-6.95722c2.599,-1.24336 5.71386,-0.1444 6.95722,2.4546c1.24336,2.599 1.60804,8.23001 -0.99096,9.47337z" fill="#f0ce84" stroke="#000000" stroke-width="0" stroke-linecap="butt"/><path d="M216.25268,181.98082c-3.92136,-11.64586 13.74948,-29.16232 25.39534,-33.08367c11.64587,-3.92136 24.26559,2.34059 28.18695,13.98646c3.92136,11.64586 -2.34059,24.26559 -13.98646,28.18695c-11.64587,3.92136 -35.67448,2.55613 -39.59583,-9.08973z" fill="#fcd88b" stroke="#000000" stroke-width="0" stroke-linecap="butt"/><path d="M228.40812,245.74827c-1.84633,-5.8988 14.25679,-4.1325 20.15558,-5.97882c5.8988,-1.84633 12.17747,1.43886 14.02379,7.33766c1.84632,5.8988 -1.43887,12.17748 -7.33766,14.0238c-5.8988,1.84632 -24.99539,-9.48384 -26.84171,-15.38263z" fill="#f0ce84" stroke="#000000" stroke-width="0" stroke-linecap="butt"/><path d="M236.25541,218.75643c0.56439,-6.15518 14.74955,1.66859 20.90472,2.23299c6.15517,0.56439 10.6874,6.0117 10.12301,12.16688c-0.56439,6.15517 -6.0117,10.6874 -12.16688,10.12301c-6.15517,-0.56439 -19.42525,-18.36769 -18.86086,-24.52287z" fill="#f0ce84" stroke="#000000" stroke-width="0" stroke-linecap="butt"/><path d="M234.75638,241.44711c0,0 -12.711,6.36741 -22.39633,-0.35204c-12.62011,-8.75554 -8.08779,-22.05804 -8.08779,-22.05804" fill="none" stroke="#fcd88b" stroke-width="3" stroke-linecap="round"/><path d="M234.59287,168.93116c0,-11.81276 3.27613,-21.08889 15.08889,-21.08889c11.81276,0 21.28889,10.67613 21.28889,22.48889c0,11.81276 -10.47613,22.28889 -22.28889,22.28889c-11.81276,0 -14.08889,-11.87613 -14.08889,-23.68889z" fill="#fc8b8b" stroke="#000000" stroke-width="0" stroke-linecap="butt"/><path d="M222.59686,171.5449c0,-1.34747 1.09234,-2.4398 2.4398,-2.4398c1.34747,0 2.4398,1.09234 2.4398,2.4398c0,1.34747 -1.09234,2.4398 -2.4398,2.4398c-1.34747,0 -2.4398,-1.09234 -2.4398,-2.4398z" fill="#000000" stroke="#000000" stroke-width="0" stroke-linecap="butt"/><path d="M215.82348,236.84074v-57.14285c0,0 8.97449,0 12.7937,0c3.09694,0 5.60819,1.45985 5.60819,1.45985c0,0 2.80409,3.72022 2.80409,8.13348c0,9.82532 0,47.54953 0,47.54953z" fill="#fcd88b" stroke="none" stroke-width="none" stroke-linecap="butt"/><path d="M229.33269,198.07295c12.27503,-0.57159 15.71529,15.35391 16.28688,27.62894c0.57159,12.27503 -0.36739,28.5664 -12.64242,29.138c-12.27503,0.57159 -22.68928,-8.91593 -23.26088,-21.19096c-0.57159,-12.27503 7.34138,-35.00438 19.61641,-35.57597z" fill="#fcd88b" stroke="#000000" stroke-width="0" stroke-linecap="butt"/><path d="M236.62495,222.15358c0.56439,-6.15518 14.74955,1.66859 20.90472,2.23298c6.15517,0.56439 10.6874,6.0117 10.123,12.16688c-0.56439,6.15518 -6.0117,10.6874 -12.16687,10.12301c-6.15518,-0.56439 -19.42525,-18.36769 -18.86085,-24.52287z" fill="#fcd88b" stroke="#000000" stroke-width="0" stroke-linecap="butt"/><path d="M228.57286,248.58443c-1.84633,-5.8988 14.25678,-4.1325 20.15558,-5.97882c5.8988,-1.84633 12.17747,1.43886 14.0238,7.33766c1.84632,5.8988 -1.43887,12.17748 -7.33766,14.0238c-5.8988,1.84632 -24.99539,-9.48384 -26.84171,-15.38263z" fill="#fcd88b" stroke="#000000" stroke-width="0" stroke-linecap="butt"/><path d="M227.81762,219.75474c-1.48721,4.5882 -5.75833,7.31403 -9.53982,6.08831c-3.78149,-1.22573 -3.75632,-5.5296 -2.26911,-10.1178c1.48721,-4.5882 3.87329,-7.72328 7.65478,-6.49756c3.78149,1.22573 5.64136,5.93885 4.15415,10.52705z" fill="#f09800" stroke="none" stroke-width="0" stroke-linecap="butt"/><path d="M199.13885,215.48004c0,-2.91513 2.36318,-5.27831 5.27831,-5.27831c2.91513,0 5.27831,2.36318 5.27831,5.27831c0,2.91513 -3.32288,7.96545 -6.23801,7.96545c-2.91513,0 -4.31861,-5.05032 -4.31861,-7.96545z" fill="#fcd88b" stroke="none" stroke-width="0" stroke-linecap="butt"/><path d="M220.927,168.08127c-1.98308,2.06378 -3.82133,3.51517 -5.27362,2.11968c-1.45229,-1.3955 -1.96866,-5.10944 0.01441,-7.17322c1.98308,-2.06378 5.71465,-1.69589 7.16694,-0.30039c1.45229,1.3955 0.07535,3.29016 -1.90773,5.35394z" fill="#f09800" stroke="none" stroke-width="0" stroke-linecap="butt"/><path d="M217.61957,174.3028c-0.6626,2.78437 -1.51094,4.96751 -3.47032,4.50123c-1.95938,-0.46628 -4.28781,-3.40539 -3.62521,-6.18976c0.6626,-2.78437 4.06533,-4.35962 6.02471,-3.89334c1.95938,0.46628 1.73342,2.79751 1.07082,5.58188z" fill="#f09800" stroke="none" stroke-width="0" stroke-linecap="butt"/><path d="M217.08083,183.78718c0.08015,2.86101 -0.17462,5.18927 -2.18792,5.24568c-2.0133,0.0564 -5.02273,-2.18041 -5.10289,-5.04142c-0.08015,-2.86101 2.79931,-5.2628 4.81262,-5.3192c0.84651,-0.02372 2.35412,-2.66306 2.05978,-1.94931c-0.56209,1.36301 0.37195,5.40618 0.41841,7.06425z" fill="#f09800" stroke="none" stroke-width="0" stroke-linecap="butt"/><path d="M217.01904,193.77758c0.08015,2.86101 -0.17462,5.18928 -2.18792,5.24568c-2.0133,0.05641 -5.02273,-2.18041 -5.10288,-5.04142c-0.08015,-2.86101 2.79932,-5.26279 4.81261,-5.3192c0.78153,-0.0219 2.35629,-5.57459 2.39973,-4.88462c0.08054,1.2792 0.02942,8.24915 0.07846,9.99956z" fill="#f09800" stroke="none" stroke-width="0" stroke-linecap="butt"/><path d="M217.10003,203.95992c0.08015,2.86101 -0.17462,5.18927 -2.18792,5.24568c-2.0133,0.05641 -5.02273,-2.18041 -5.10289,-5.04142c-0.08015,-2.86101 2.79932,-5.26279 4.81262,-5.3192c0.72785,-0.02039 2.30188,-5.36612 2.32146,-4.85885c0.03964,1.02729 0.10556,8.14709 0.15673,9.97379z" fill="#f09800" stroke="none" stroke-width="0" stroke-linecap="butt"/><path d="M215.52583,213.96173c-0.8355,2.73747 -1.81875,4.86325 -3.74512,4.27531c-1.92636,-0.58794 -4.06637,-3.66697 -3.23087,-6.40444c0.8355,-2.73747 4.33011,-4.09675 6.25647,-3.50881c0.582,0.17763 2.30768,-2.83542 2.24842,-2.33502c-0.15027,1.26893 -0.94583,6.06254 -1.5289,7.97295z" fill="#f09800" stroke="none" stroke-width="0" stroke-linecap="butt"/><path d="M219.78599,175.13362c-1.46863,2.47869 -7.28424,2.02023 -9.76293,0.5516c-2.47869,-1.46863 -3.29751,-4.66856 -1.82888,-7.14724c1.46863,-2.47869 4.66856,-3.29751 7.14724,-1.82888c2.47869,1.46863 5.91319,5.94583 4.44456,8.42452z" fill="#fcd88b" stroke="#000000" stroke-width="0" stroke-linecap="butt"/></g></g></svg>